<svg xmlns="http://www.w3.org/2000/svg" id="Layer_2" width="80.24" height="125.82" viewBox="0 0 80.24 125.82"><defs><style>.cls-1{fill:#fff;}.cls-1,.cls-2{stroke-width:0px;}.cls-2{fill:#35268d;}</style></defs><g id="Layer_1-2"><path class="cls-2" d="m27.69,45.98c-.28-.08-.57-.12-.88-.12-1.89,0-3.44,1.54-3.44,3.44s1.54,3.44,3.44,3.44c.31,0,.59-.04.88-.12,1.48-.39,2.56-1.73,2.56-3.32s-1.08-2.93-2.56-3.32Zm-.88,5.05c-.96,0-1.73-.78-1.73-1.73s.78-1.73,1.73-1.73c.31,0,.61.09.88.24v2.99c-.27.15-.56.24-.88.24Z"></path><path class="cls-1" d="m27.69,44.24c-.28-.06-.58-.08-.88-.08-2.83,0-5.14,2.3-5.14,5.14s2.3,5.14,5.14,5.14c.3,0,.59-.02.88-.08,1.06-.18,2.02-.69,2.75-1.43v-7.26c-.73-.74-1.69-1.25-2.75-1.43Zm0,6.55c-.27.15-.56.24-.88.24-.96,0-1.73-.78-1.73-1.73s.78-1.73,1.73-1.73c.31,0,.61.09.88.24.51.3.86.86.86,1.49s-.35,1.2-.86,1.49Z"></path><path class="cls-2" d="m53.53,21.53c-1.55,0-2.82,1.24-2.85,2.78v.06c0,1.57,1.28,2.85,2.85,2.85.53,0,1.02-.14,1.45-.4.84-.49,1.41-1.41,1.41-2.45,0-1.57-1.28-2.84-2.85-2.84Zm.18,4.55l-1.75-1.03c-.1-.21-.14-.44-.14-.68,0-.94.77-1.71,1.72-1.71s1.72.77,1.72,1.71-.67,1.62-1.54,1.71Z"></path><path class="cls-1" d="m53.53,20.4c-1.96,0-3.6,1.42-3.92,3.28-.04.22-.06.46-.06.69,0,2.2,1.78,3.98,3.98,3.98.96,0,1.84-.35,2.52-.9.89-.73,1.46-1.84,1.46-3.08,0-2.19-1.79-3.97-3.98-3.97Zm.18,5.69c-.06,0-.12,0-.18,0-.71,0-1.31-.43-1.57-1.04-.1-.21-.14-.44-.14-.68,0-.94.77-1.71,1.72-1.71s1.72.77,1.72,1.71-.67,1.62-1.54,1.71Z"></path><path class="cls-2" d="m52.18,11.17c-1.27,0-2.3,1.04-2.3,2.3s1.04,2.31,2.3,2.31,2.31-1.04,2.31-2.31-1.04-2.3-2.31-2.3Zm0,3.48c-.64,0-1.17-.53-1.17-1.18s.53-1.17,1.17-1.17,1.17.53,1.17,1.17-.52,1.18-1.17,1.18Z"></path><path class="cls-1" d="m52.18,10.04c-1.9,0-3.44,1.54-3.44,3.44s1.54,3.44,3.44,3.44,3.44-1.54,3.44-3.44-1.55-3.44-3.44-3.44Zm0,4.62c-.64,0-1.17-.53-1.17-1.18s.53-1.17,1.17-1.17,1.17.53,1.17,1.17-.52,1.18-1.17,1.18Z"></path><path class="cls-2" d="m46.53,2.66c-1.04,0-1.87.84-1.87,1.87s.84,1.87,1.87,1.87,1.87-.84,1.87-1.87-.84-1.87-1.87-1.87Zm0,2.61c-.41,0-.74-.33-.74-.74s.33-.74.74-.74.74.34.74.74-.34.74-.74.74Z"></path><path class="cls-1" d="m46.53,1.53c-1.65,0-3,1.35-3,3s1.35,3,3,3,3-1.35,3-3-1.35-3-3-3Zm0,3.74c-.41,0-.74-.33-.74-.74s.33-.74.74-.74.74.34.74.74-.34.74-.74.74Z"></path><path class="cls-1" d="m36.85,71.9c.26.86.39,1.77.39,2.71s-.14,1.85-.39,2.71v-5.43Z"></path><path class="cls-1" d="m44.78,48.11l7.77,4.55v28.78c-.6-.12-1.23-.18-1.87-.18-2.91,0-5.52,1.3-7.29,3.36-1.45,1.69-2.33,3.88-2.33,6.26s.88,4.58,2.33,6.26c1.77,2.06,4.38,3.36,7.29,3.36.64,0,1.27-.06,1.87-.18v17.95l-9.16,7.2-4.48-5.39,1.73,1v-21.91c-1.85-2.25-2.98-5.14-2.98-8.29s1.12-6.03,2.98-8.29v-36.9l4.14,2.42Z"></path><polygon class="cls-1" points="80.24 41.61 80.24 59.13 71.08 66.69 71.08 53.77 68.33 52.17 68.33 50.74 2.75 12.35 2.75 16.45 0 7.56 9.16 0 49.62 23.68 50.68 24.31 51.96 25.05 53.71 26.08 54.98 26.82 56.06 27.45 80.24 41.61"></polygon><path class="cls-2" d="m0,7.56v17.53l27.69,16.2v27.1c.99,0,1.92.25,2.75.68,2.02,1.02,3.4,3.12,3.4,5.54s-1.38,4.52-3.4,5.55c-.83.43-1.76.67-2.75.67v35.96l15.71,9.03v-28.68c-1.45-1.68-2.33-3.87-2.33-6.26s.88-4.58,2.33-6.26v-34.13l9.16,5.36,18.52,10.85v-17.53L0,7.56Zm68.33,54.34l-15.78-9.23-7.77-4.55-4.14-2.42v36.9c-1.85,2.26-2.98,5.14-2.98,8.29s1.12,6.04,2.98,8.29v21.91l-1.73-1-8.48-4.88v-31.39c3.08-.94,5.51-3.39,6.42-6.49.26-.86.39-1.77.39-2.71s-.14-1.85-.39-2.71c-.91-3.1-3.34-5.55-6.42-6.49v-25.69l-1.36-.79L2.75,23.51v-11.16l65.59,38.39v11.16Z"></path><path class="cls-1" d="m0,7.56v17.53l27.69,16.2v27.1c.99,0,1.92.25,2.75.68v-29.36l-1.36-.79L2.75,23.51v-11.16l65.59,38.39v11.16l-15.78-9.23-7.77-4.55-4.14-2.42v75.38l-1.73-1-8.48-4.88v-35.04c-.83.43-1.76.67-2.75.67v35.96l15.71,9.03v-28.68c-1.45-1.68-2.33-3.87-2.33-6.26s.88-4.58,2.33-6.26v-34.13l9.16,5.36,18.52,10.85v-17.53L0,7.56Z"></path><path class="cls-2" d="m30.43,67.21c-.85-.33-1.78-.51-2.75-.51h-.06c-4.38,0-7.93,3.54-7.93,7.92s3.55,7.92,7.93,7.92h.06c.96,0,1.89-.18,2.75-.51,2.99-1.13,5.11-4.01,5.11-7.4s-2.12-6.27-5.11-7.4Zm0,12.95c-.83.43-1.76.67-2.75.67h-.06c-3.44,0-6.22-2.79-6.22-6.22s2.79-6.22,6.22-6.22h.06c.99,0,1.92.25,2.75.68,2.02,1.02,3.4,3.12,3.4,5.54s-1.38,4.52-3.4,5.55Z"></path><path class="cls-1" d="m36.85,71.9c-.91-3.1-3.34-5.55-6.42-6.49-.87-.26-1.79-.41-2.75-.42h-.06c-5.31,0-9.62,4.31-9.62,9.62s4.31,9.62,9.62,9.62h.06c.96,0,1.88-.15,2.75-.42,3.08-.94,5.51-3.39,6.42-6.49.26-.86.39-1.77.39-2.71s-.14-1.85-.39-2.71Zm-6.42,8.26c-.83.43-1.76.67-2.75.67h-.06c-3.44,0-6.22-2.79-6.22-6.22s2.79-6.22,6.22-6.22h.06c.99,0,1.92.25,2.75.68,2.02,1.02,3.4,3.12,3.4,5.54s-1.38,4.52-3.4,5.55Z"></path><path class="cls-2" d="m52.55,79.72c-.61-.1-1.24-.15-1.87-.15-2.78,0-5.32,1-7.29,2.66-1.12.95-2.06,2.1-2.75,3.42-.82,1.57-1.28,3.35-1.28,5.24s.47,3.67,1.28,5.24c.68,1.32,1.62,2.48,2.75,3.43,1.97,1.65,4.51,2.66,7.29,2.66.63,0,1.26-.06,1.87-.15,5.36-.89,9.45-5.55,9.45-11.17s-4.09-10.27-9.45-11.16Zm0,20.6c-.6.12-1.23.18-1.87.18-2.91,0-5.52-1.3-7.29-3.36-1.45-1.68-2.33-3.87-2.33-6.26s.88-4.58,2.33-6.26c1.77-2.06,4.38-3.36,7.29-3.36.64,0,1.27.06,1.87.18,4.42.88,7.75,4.78,7.75,9.43s-3.33,8.56-7.75,9.43Z"></path><path class="cls-1" d="m52.55,78c-.61-.09-1.24-.14-1.87-.14-2.7,0-5.21.83-7.29,2.23-1.03.71-1.95,1.54-2.75,2.5-1.85,2.26-2.98,5.14-2.98,8.29s1.12,6.04,2.98,8.29c.8.96,1.72,1.8,2.75,2.5,2.08,1.41,4.59,2.24,7.29,2.24.63,0,1.26-.05,1.87-.14,6.3-.91,11.15-6.34,11.15-12.89s-4.86-11.97-11.15-12.88Zm0,22.31c-.6.12-1.23.18-1.87.18-2.91,0-5.52-1.3-7.29-3.36-1.45-1.68-2.33-3.87-2.33-6.26s.88-4.58,2.33-6.26c1.77-2.06,4.38-3.36,7.29-3.36.64,0,1.27.06,1.87.18,4.42.88,7.75,4.78,7.75,9.43s-3.33,8.56-7.75,9.43Z"></path><path class="cls-2" d="m17.76,53.19c-3.1,0-5.61,2.51-5.61,5.61s2.51,5.62,5.61,5.62,5.61-2.52,5.61-5.62-2.51-5.61-5.61-5.61Zm0,9.53c-2.16,0-3.92-1.76-3.92-3.92s1.76-3.91,3.92-3.91,3.91,1.76,3.91,3.91-1.75,3.92-3.91,3.92Z"></path><path class="cls-1" d="m17.76,51.49c-4.03,0-7.31,3.28-7.31,7.31s3.28,7.32,7.31,7.32,7.32-3.28,7.32-7.32-3.28-7.31-7.32-7.31Zm0,11.23c-2.16,0-3.92-1.76-3.92-3.92s1.76-3.91,3.92-3.91,3.91,1.76,3.91,3.91-1.75,3.92-3.91,3.92Z"></path></g></svg>